<?xml version="1.0" encoding="UTF-8"?>
<svg version="1.1" xmlns="http://www.w3.org/2000/svg" width="512" height="512">
<path d="M0 0 C2.06944895 0.00319397 4.13751071 -0.02048181 6.20678711 -0.0456543 C7.51454102 -0.04629883 8.82229492 -0.04694336 10.16967773 -0.04760742 C11.35988525 -0.05058838 12.55009277 -0.05356934 13.77636719 -0.05664062 C16.74389648 0.31567383 16.74389648 0.31567383 18.65478516 1.71337891 C19.74389648 3.31567383 19.74389648 3.31567383 19.74389648 5.31567383 C22.71389648 5.31567383 25.68389648 5.31567383 28.74389648 5.31567383 C29.40389648 3.99567383 30.06389648 2.67567383 30.74389648 1.31567383 C31.74389648 0.31567383 31.74389648 0.31567383 34.11889648 0.06567383 C36.74389648 0.31567383 36.74389648 0.31567383 38.55639648 1.69067383 C39.74389648 3.31567383 39.74389648 3.31567383 39.74389648 5.31567383 C42.71389648 5.31567383 45.68389648 5.31567383 48.74389648 5.31567383 C49.40389648 3.99567383 50.06389648 2.67567383 50.74389648 1.31567383 C52.51462019 -0.45504987 55.06981792 0.1853916 57.46850204 0.18145275 C58.71998181 0.17699491 59.97146158 0.17253706 61.26086497 0.16794413 C62.66778613 0.16803345 64.07470729 0.16822333 65.48162842 0.16850281 C66.96228039 0.1652061 68.44293145 0.16148095 69.92358136 0.15736133 C74.01219353 0.14731014 78.10079101 0.1436195 82.18941379 0.14097202 C86.59187368 0.13707786 90.99432185 0.12749856 95.39677429 0.11875916 C106.042417 0.09896368 116.6880607 0.08892207 127.33371723 0.08003137 C132.34590459 0.07565122 137.35809088 0.07028349 142.3702774 0.0650425 C159.03289445 0.04802284 175.69551082 0.03353057 192.35813522 0.02629375 C196.68577831 0.02438381 201.01342139 0.02246349 205.34106445 0.02050781 C206.95451905 0.0197822 206.95451905 0.0197822 208.60056868 0.01904193 C226.00934474 0.01074896 243.41805192 -0.01457226 260.82679793 -0.04707287 C278.69803987 -0.08016474 296.56924684 -0.09815716 314.44051957 -0.10135049 C324.47513738 -0.10351422 334.50965492 -0.11224231 344.54424286 -0.13781166 C353.09459074 -0.15954818 361.64481403 -0.16755478 370.19518641 -0.15784488 C374.55527499 -0.15330797 378.91510668 -0.15515056 383.27515984 -0.17460632 C387.27409337 -0.1922957 391.2725837 -0.19119389 395.27152231 -0.17570903 C396.71115434 -0.17334159 398.15081752 -0.17761127 399.5904021 -0.18953768 C413.75126711 -0.29949965 425.35100717 2.14728567 435.64233398 12.16333008 C442.81871982 19.77877749 445.84879608 27.9534838 445.9050293 38.31225586 C445.9099942 39.00878769 445.91495911 39.70531952 445.92007446 40.42295837 C445.93465512 42.72314452 445.94149301 45.02326159 445.94702148 47.32348633 C445.95277852 48.93049113 445.95853618 50.53749593 445.96429443 52.14450073 C445.97479433 55.51536375 445.98064288 58.88620301 445.98413086 62.25708008 C445.98959812 66.55404468 446.01359228 70.85068963 446.04210281 75.1475544 C446.06083144 78.46950156 446.06594031 81.79137351 446.06746674 85.11336899 C446.07047333 86.69604098 446.07843364 88.27871229 446.09165192 89.86133194 C446.19846406 103.63902156 444.74219088 114.93650827 434.85717773 125.29223633 C422.58700949 136.62225416 408.44676831 136.61586223 392.55029297 136.56964111 C390.8162215 136.57194842 389.08215101 136.57512675 387.34808254 136.5790956 C382.6054843 136.58741514 377.86296695 136.58333127 373.12036848 136.57712317 C367.99691703 136.57258803 362.87347924 136.5795877 357.75003052 136.58508301 C347.72206085 136.59396732 337.69412116 136.59205928 327.66615033 136.58625773 C319.51480695 136.58173746 311.36347196 136.58112991 303.21212769 136.58330536 C302.05114231 136.58361182 300.89015693 136.58391829 299.69399017 136.58423404 C297.33533009 136.58487351 294.97667 136.58552193 292.61800992 136.58617923 C270.51076948 136.5918797 248.40354564 136.58532905 226.29630792 136.57457849 C207.33514424 136.56564324 188.37400504 136.56719536 169.4128418 136.57641602 C147.38366957 136.58712363 125.35451188 136.59133041 103.32533741 136.58519149 C100.9754467 136.5845544 98.62555599 136.58392566 96.27566528 136.58330536 C95.11953167 136.58299681 93.96339805 136.58268826 92.77223009 136.58237036 C84.63248211 136.58064489 76.49274337 136.58355532 68.35299683 136.58826447 C58.43080418 136.59387874 48.50864318 136.59234532 38.58645415 136.58170298 C33.52588138 136.57645366 28.46536133 136.57437695 23.40478897 136.58100128 C18.76868923 136.58697811 14.13269087 136.58365704 9.49660027 136.57304618 C7.82312499 136.5708195 6.14964107 136.57193192 4.47617137 136.57679775 C-10.06720807 136.61582753 -23.45364755 136.25540823 -34.80688477 126.01489258 C-42.68245559 117.72685323 -46.34510331 109.61902942 -46.43310547 98.24316406 C-46.43967667 97.53848495 -46.44624786 96.83380585 -46.45301819 96.10777283 C-46.47269521 93.77993651 -46.48440462 91.45216471 -46.49438477 89.12426758 C-46.49846029 88.32525591 -46.50253582 87.52624424 -46.50673485 86.7030201 C-46.52757722 82.46933376 -46.54188378 78.23567962 -46.55126953 74.00195312 C-46.56229741 69.65342788 -46.59666015 65.30541949 -46.63644123 60.95707607 C-46.66273845 57.59305447 -46.67097317 54.22915324 -46.67455101 50.86503792 C-46.67938749 49.26363722 -46.69091644 47.66224083 -46.709589 46.0609417 C-46.85117921 33.10790439 -45.32917977 22.21555319 -36.25610352 12.31567383 C-25.9085515 1.82203873 -14.30045871 -0.04631311 0 0 Z " fill="#71C0E7" transform="translate(56.256103515625,9.684326171875)"/>
<path d="M0 0 C1.17498047 -0.020625 2.34996094 -0.04125 3.56054688 -0.0625 C4.68912109 -0.06765625 5.81769531 -0.0728125 6.98046875 -0.078125 C8.00422607 -0.0874707 9.0279834 -0.09681641 10.08276367 -0.10644531 C13.1979953 0.30033746 14.58488712 1.06461832 16.8125 3.25 C16.8125 3.91 16.8125 4.57 16.8125 5.25 C19.7825 5.25 22.7525 5.25 25.8125 5.25 C26.4725 3.93 27.1325 2.61 27.8125 1.25 C30.1875 0.3125 30.1875 0.3125 32.8125 0.25 C35.125 1.5625 35.125 1.5625 36.8125 3.25 C36.8125 3.91 36.8125 4.57 36.8125 5.25 C39.7825 5.25 42.7525 5.25 45.8125 5.25 C46.4725 3.93 47.1325 2.61 47.8125 1.25 C50.50688769 -0.09719385 52.58473484 0.12333847 55.60327053 0.12136555 C56.84404116 0.1181411 58.08481179 0.11491665 59.36318153 0.1115945 C60.75281753 0.11306588 62.14245344 0.11463362 63.53208923 0.11628723 C64.99853005 0.11442054 66.46497037 0.11212042 67.9314099 0.10942191 C71.97602195 0.10327935 76.0206134 0.10344039 80.06522906 0.10461628 C84.42195815 0.10481969 88.77868051 0.09930716 93.13540649 0.09455872 C101.67868211 0.08623693 110.22195084 0.08350314 118.76523017 0.08294634 C125.71112351 0.08247167 132.65701456 0.08041937 139.60290718 0.07724571 C159.29086739 0.06843308 178.97882214 0.063827 198.66678434 0.06457619 C199.729121 0.06461614 200.79145765 0.0646561 201.88598633 0.06469727 C202.94961938 0.06473815 204.01325244 0.06477903 205.1091168 0.06482115 C222.33162758 0.06522725 239.55411647 0.05566836 256.77662092 0.0415589 C274.45578292 0.02718961 292.13493424 0.0202891 309.81410223 0.02115268 C319.74129603 0.02148457 329.6684669 0.01874102 339.59565544 0.00797462 C348.0523227 -0.00113789 356.50895666 -0.00329964 364.96562671 0.00348405 C369.2788192 0.00674615 373.59194781 0.00681727 377.9051342 -0.0018692 C381.8587892 -0.00974942 385.81232984 -0.00828724 389.7659821 0.00041493 C391.19141193 0.00194663 392.61685037 0.00014626 394.04227006 -0.00544515 C408.03647781 -0.05667456 420.54782102 0.7953355 431.36328125 10.55078125 C439.23885208 18.8388206 442.9014998 26.94664441 442.98950195 38.32250977 C442.99607315 39.02718887 443.00264435 39.73186798 443.00941467 40.457901 C443.0290917 42.78573732 443.0408011 45.11350912 443.05078125 47.44140625 C443.05485678 48.24041792 443.0589323 49.03942959 443.06313133 49.86265373 C443.0839737 54.09634006 443.09828026 58.32999421 443.10766602 62.5637207 C443.11869389 66.91224595 443.15305663 71.26025434 443.19283772 75.60859776 C443.21913493 78.97261936 443.22736965 82.33652059 443.23094749 85.70063591 C443.23578397 87.3020366 443.24731292 88.903433 443.26598549 90.50473213 C443.40757569 103.45776944 441.88557625 114.35012064 432.8125 124.25 C425.42720247 131.73956055 416.63073205 135.78505689 406.10234624 136.50299966 C404.81834406 136.50440851 403.53434188 136.50581736 402.21143055 136.50726891 C401.48684736 136.51077498 400.76226417 136.51428105 400.01572391 136.51789337 C397.59884978 136.52716333 395.18221895 136.52229553 392.76533508 136.51742554 C391.0105287 136.52116402 389.25572399 136.52576634 387.50092191 136.53115618 C382.68700508 136.54337714 377.87315781 136.54312677 373.05922902 136.54076743 C367.86410588 136.54035903 362.66900497 136.55140062 357.47389221 136.56088257 C347.29846011 136.57748879 337.12305118 136.58299195 326.94760666 136.58410732 C318.67511707 136.58505801 310.40263511 136.58916936 302.13014793 136.59550858 C278.66947576 136.61312026 255.20882188 136.62234761 231.74814305 136.62084763 C230.48362157 136.62076772 229.21910008 136.6206878 227.91625977 136.62060547 C226.65019192 136.62052371 225.38412408 136.62044195 224.07969054 136.62035771 C203.56419496 136.61954492 183.04877281 136.63868107 162.53329847 136.6668822 C141.46163596 136.69561901 120.39000925 136.70942204 99.31832665 136.70769465 C87.49083015 136.70703101 75.66341062 136.71251208 63.83593178 136.73405075 C53.7651141 136.75227303 43.6944083 136.75660125 33.62358127 136.7430319 C28.48778605 136.73650749 23.3522054 136.73636613 18.21643066 136.7537384 C13.50907938 136.76949735 8.80211229 136.76657664 4.09477022 136.74917014 C2.39761393 136.74610646 0.70042876 136.74970867 -0.99669345 136.76089029 C-15.7471622 136.85158906 -28.1877257 135.0090396 -39.0859375 124.40234375 C-46.29074068 116.75674038 -49.28410408 108.57036492 -49.36450195 98.17749023 C-49.37107315 97.47281113 -49.37764435 96.76813202 -49.38441467 96.042099 C-49.4040917 93.71426268 -49.4158011 91.38649088 -49.42578125 89.05859375 C-49.42985678 88.25958208 -49.4339323 87.46057041 -49.43813133 86.63734627 C-49.4589737 82.40365994 -49.47328026 78.17000579 -49.48266602 73.9362793 C-49.49369389 69.58775405 -49.52805663 65.23974566 -49.56783772 60.89140224 C-49.59413493 57.52738064 -49.60236965 54.16347941 -49.60594749 50.79936409 C-49.61078397 49.1979634 -49.62231292 47.596567 -49.64098549 45.99526787 C-49.79009009 32.35479365 -47.9432261 21.46458439 -38.1875 11.25 C-27.11555466 0.93766837 -14.42032776 0.06391281 0 0 Z " fill="#EFBF20" transform="translate(59.1875,365.75)"/>
<path d="M0 0 C2.06944895 0.00319397 4.13751071 -0.02048181 6.20678711 -0.0456543 C7.51454102 -0.04629883 8.82229492 -0.04694336 10.16967773 -0.04760742 C11.35988525 -0.05058838 12.55009277 -0.05356934 13.77636719 -0.05664062 C16.74389648 0.31567383 16.74389648 0.31567383 18.66259766 1.64697266 C19.74389648 3.31567383 19.74389648 3.31567383 19.61889648 6.37817383 C18.74389648 9.31567383 18.74389648 9.31567383 15.74389648 11.31567383 C12.71630859 11.55517578 12.71630859 11.55517578 9.02124023 11.55395508 C7.66380858 11.56939373 6.30638655 11.58569872 4.94897461 11.6027832 C2.82514044 11.61911851 0.70201577 11.62824324 -1.421875 11.62109375 C-11.15562473 11.60853996 -19.71478108 12.13326012 -27.15209961 19.08886719 C-33.40058875 25.83513745 -35.36287659 32.76910262 -35.41723633 41.79907227 C-35.43164764 43.73698639 -35.43164764 43.73698639 -35.4463501 45.71405029 C-35.45119933 47.11771466 -35.45547785 48.5213811 -35.45922852 49.92504883 C-35.46205589 50.63737923 -35.46488327 51.34970963 -35.46779633 52.08362579 C-35.4827552 55.85466377 -35.49200498 59.62566382 -35.49633789 63.39672852 C-35.50181197 67.27115958 -35.52582667 71.14523736 -35.55430984 75.01955795 C-35.57303434 78.01720152 -35.57814705 81.01476172 -35.57967377 84.0124588 C-35.58267967 85.43965838 -35.59063759 86.86685722 -35.60385895 88.29399872 C-35.7063307 100.20696679 -34.59469743 109.39014005 -26.25610352 118.31567383 C-20.2738696 122.95495728 -15.51670643 124.56400769 -7.97453213 124.57852936 C-7.24804575 124.58263463 -6.52155938 124.58673989 -5.77305827 124.59096956 C-3.3316646 124.60230446 -0.89049677 124.59939579 1.55091858 124.59655762 C3.31622354 124.60172521 5.08152616 124.60775162 6.84682554 124.61456442 C11.70364839 124.63070784 16.56041212 124.63428375 21.41725862 124.63575935 C26.6533208 124.63945993 31.88935228 124.65455444 37.12539673 124.66802979 C48.5780162 124.6952008 60.03062168 124.70724679 71.48326802 124.7160511 C78.63454882 124.72157572 85.78582422 124.73005044 92.93710136 124.73905945 C112.73698748 124.76344631 132.53686925 124.78404402 152.33677006 124.79080963 C153.60418093 124.79124876 154.87159181 124.7916879 156.17740908 124.79214033 C157.44785575 124.79257689 158.71830243 124.79301345 160.02724749 124.79346323 C162.60166109 124.79435016 165.17607469 124.79524329 167.75048828 124.79614258 C169.66598604 124.79680687 169.66598604 124.79680687 171.62018072 124.79748458 C192.30793912 124.80537906 212.99555655 124.84028186 233.68326051 124.88686162 C254.92319545 124.93429867 276.16305968 124.95921382 297.40304846 124.96154547 C309.32841411 124.96337853 321.25359615 124.97487187 333.17891121 125.01118469 C343.33477042 125.0420004 353.49038929 125.05221974 363.64628638 125.03570849 C368.82659554 125.02789987 374.00642082 125.02973191 379.1866703 125.05782318 C383.93371608 125.08332944 388.67991509 125.08088313 393.42695992 125.05664176 C395.13967216 125.05273244 396.85244467 125.05886369 398.56507231 125.07633048 C408.71798295 125.17328101 417.14386311 124.38482947 425.74389648 118.31567383 C433.69775465 110.46994116 435.08142921 101.29646808 435.16073608 90.46411133 C435.15536537 89.08129565 435.14921217 87.69848283 435.14233398 86.31567383 C435.14435968 84.87035984 435.14727522 83.42504685 435.15103149 81.97973633 C435.1554316 78.96401145 435.14909919 75.9485548 435.13500977 72.93286133 C435.11791896 69.08987062 435.12777268 65.24750872 435.14572716 61.40454102 C435.15662809 58.42402509 435.15308997 55.44365538 435.14534378 52.46313477 C435.14335915 51.04711836 435.14573916 49.63108817 435.15278244 48.21508789 C435.19339058 37.75957262 434.60419974 28.6592859 427.74389648 20.31567383 C421.73841612 15.05457023 416.62376492 12.06841564 408.48354912 12.05954742 C407.21445477 12.05331533 405.94536043 12.04708323 404.63780868 12.04066229 C403.23183584 12.04382083 401.82586339 12.0471596 400.41989136 12.05065918 C398.92453414 12.04708848 397.42917881 12.04263789 395.93382657 12.0373826 C391.82352331 12.02545149 387.71329967 12.02590177 383.60298324 12.02831769 C379.17078434 12.0287368 374.73861301 12.01764272 370.306427 12.00785828 C362.62628925 11.99239695 354.94616987 11.98399238 347.26601791 11.98014832 C336.15850895 11.9744045 325.05104951 11.9558242 313.9435624 11.93370777 C295.91851909 11.89798161 277.89347298 11.8696699 259.8684082 11.84741211 C258.78942009 11.84607712 257.71043199 11.84474213 256.59874727 11.84336668 C247.84241452 11.83258834 239.08608135 11.82216834 230.32974815 11.81176662 C222.67271275 11.80265626 215.01567754 11.79340398 207.35864258 11.78393555 C206.28036001 11.7826048 205.20207743 11.78127406 204.09111963 11.77990299 C186.13164545 11.75749691 168.17219248 11.72731421 150.21274006 11.6915431 C139.12859868 11.66984595 128.04449029 11.65524855 116.96032883 11.64970434 C109.37132634 11.64546679 101.78235529 11.63425458 94.19337021 11.6174804 C89.81027104 11.6080481 85.42723072 11.6019713 81.04412079 11.60454369 C77.03609764 11.60684562 73.02819837 11.60008816 69.02020039 11.58596486 C67.56607067 11.58248724 66.11192816 11.58243003 64.65779875 11.58603746 C62.68938557 11.59044598 60.72095575 11.58150624 58.75256157 11.57180023 C57.65674102 11.57060606 56.56092046 11.56941188 55.43189323 11.56818151 C52.74389648 11.31567383 52.74389648 11.31567383 49.74389648 9.31567383 C48.86889648 6.37817383 48.86889648 6.37817383 48.74389648 3.31567383 C49.86291516 1.64803737 49.86291516 1.64803737 51.74389648 0.31567383 C54.41627586 -0.06152433 54.41627586 -0.06152433 57.7145977 -0.06464291 C58.97005957 -0.07308285 60.22552143 -0.08152279 61.51902759 -0.09021848 C62.92006537 -0.0844226 64.321102 -0.07834154 65.72213745 -0.07200623 C67.20451866 -0.07617651 68.68689668 -0.08165234 70.16926873 -0.08832604 C74.25342399 -0.10284117 78.33737849 -0.09851701 82.42154503 -0.09115922 C86.82261958 -0.0864444 91.22364963 -0.09892286 95.62471008 -0.10917664 C104.25342926 -0.12640705 112.88207576 -0.12719535 121.51080768 -0.12196373 C128.52722327 -0.1179263 135.54361733 -0.11936053 142.56003189 -0.12471199 C144.0566502 -0.12583462 144.0566502 -0.12583462 145.58350322 -0.12697994 C147.61038112 -0.1285114 149.63725901 -0.13004975 151.6641369 -0.1315949 C170.69211203 -0.14533693 189.7200461 -0.1398718 208.74802031 -0.12840969 C226.14374419 -0.11849011 243.53936151 -0.13139288 260.93506895 -0.15534388 C278.7973438 -0.17975167 296.65956906 -0.18933772 314.52186024 -0.18269116 C324.54972943 -0.17920079 334.57751681 -0.18141818 344.60537338 -0.19894218 C353.14836719 -0.21368575 361.69122167 -0.21427221 370.2342128 -0.19687127 C374.59025457 -0.18837389 378.9460477 -0.18618035 383.30207634 -0.20152283 C387.29724544 -0.21541933 391.29195408 -0.21054357 395.28709687 -0.19128359 C396.72531649 -0.18753817 398.16357343 -0.19040313 399.60175966 -0.20089524 C413.75568387 -0.29673303 425.35588901 2.15203693 435.64233398 12.16333008 C442.81871982 19.77877749 445.84879608 27.9534838 445.9050293 38.31225586 C445.9099942 39.00878769 445.91495911 39.70531952 445.92007446 40.42295837 C445.93465512 42.72314452 445.94149301 45.02326159 445.94702148 47.32348633 C445.95277852 48.93049113 445.95853618 50.53749593 445.96429443 52.14450073 C445.97479433 55.51536375 445.98064288 58.88620301 445.98413086 62.25708008 C445.98959812 66.55404468 446.01359228 70.85068963 446.04210281 75.1475544 C446.06083144 78.46950156 446.06594031 81.79137351 446.06746674 85.11336899 C446.07047333 86.69604098 446.07843364 88.27871229 446.09165192 89.86133194 C446.19846406 103.63902156 444.74219088 114.93650827 434.85717773 125.29223633 C422.58700949 136.62225416 408.44676831 136.61586223 392.55029297 136.56964111 C390.8162215 136.57194842 389.08215101 136.57512675 387.34808254 136.5790956 C382.6054843 136.58741514 377.86296695 136.58333127 373.12036848 136.57712317 C367.99691703 136.57258803 362.87347924 136.5795877 357.75003052 136.58508301 C347.72206085 136.59396732 337.69412116 136.59205928 327.66615033 136.58625773 C319.51480695 136.58173746 311.36347196 136.58112991 303.21212769 136.58330536 C302.05114231 136.58361182 300.89015693 136.58391829 299.69399017 136.58423404 C297.33533009 136.58487351 294.97667 136.58552193 292.61800992 136.58617923 C270.51076948 136.5918797 248.40354564 136.58532905 226.29630792 136.57457849 C207.33514424 136.56564324 188.37400504 136.56719536 169.4128418 136.57641602 C147.38366957 136.58712363 125.35451188 136.59133041 103.32533741 136.58519149 C100.9754467 136.5845544 98.62555599 136.58392566 96.27566528 136.58330536 C95.11953167 136.58299681 93.96339805 136.58268826 92.77223009 136.58237036 C84.63248211 136.58064489 76.49274337 136.58355532 68.35299683 136.58826447 C58.43080418 136.59387874 48.50864318 136.59234532 38.58645415 136.58170298 C33.52588138 136.57645366 28.46536133 136.57437695 23.40478897 136.58100128 C18.76868923 136.58697811 14.13269087 136.58365704 9.49660027 136.57304618 C7.82312499 136.5708195 6.14964107 136.57193192 4.47617137 136.57679775 C-10.06720807 136.61582753 -23.45364755 136.25540823 -34.80688477 126.01489258 C-42.68245559 117.72685323 -46.34510331 109.61902942 -46.43310547 98.24316406 C-46.43967667 97.53848495 -46.44624786 96.83380585 -46.45301819 96.10777283 C-46.47269521 93.77993651 -46.48440462 91.45216471 -46.49438477 89.12426758 C-46.49846029 88.32525591 -46.50253582 87.52624424 -46.50673485 86.7030201 C-46.52757722 82.46933376 -46.54188378 78.23567962 -46.55126953 74.00195312 C-46.56229741 69.65342788 -46.59666015 65.30541949 -46.63644123 60.95707607 C-46.66273845 57.59305447 -46.67097317 54.22915324 -46.67455101 50.86503792 C-46.67938749 49.26363722 -46.69091644 47.66224083 -46.709589 46.0609417 C-46.85117921 33.10790439 -45.32917977 22.21555319 -36.25610352 12.31567383 C-25.9085515 1.82203873 -14.30045871 -0.04631311 0 0 Z " fill="#010303" transform="translate(56.256103515625,9.684326171875)"/>
<path d="M0 0 C1.17498047 -0.020625 2.34996094 -0.04125 3.56054688 -0.0625 C4.68912109 -0.06765625 5.81769531 -0.0728125 6.98046875 -0.078125 C8.00422607 -0.0874707 9.0279834 -0.09681641 10.08276367 -0.10644531 C13.17232134 0.29698499 14.52944411 1.18471881 16.8125 3.25 C16.5 6.125 16.5 6.125 15.8125 9.25 C12.16867536 11.67921643 10.42665402 11.48971396 6.08984375 11.48828125 C4.73241209 11.50371991 3.37499007 11.52002489 2.01757812 11.53710938 C-0.10625605 11.55344469 -2.22938071 11.56256941 -4.35327148 11.55541992 C-14.10859794 11.54283831 -22.27761128 12.21783352 -29.97436523 18.77148438 C-38.31362759 27.51969749 -38.78383224 38.06059477 -38.68359375 49.56640625 C-38.68374912 51.03271049 -38.68524432 52.49901512 -38.68800354 53.96531677 C-38.68937987 57.02223101 -38.67695816 60.07867169 -38.65405273 63.13549805 C-38.62564466 67.03117173 -38.6284224 70.92606163 -38.64114285 74.82179356 C-38.64813491 77.84436099 -38.64027122 80.86675085 -38.62788582 83.88929558 C-38.62340725 85.32484186 -38.62300265 86.76040744 -38.62695122 88.19595528 C-38.64232468 98.69823061 -38.07968155 107.86761704 -31.1875 116.25 C-24.739757 121.89854796 -19.59139876 124.49698515 -10.88472462 124.51006222 C-10.15595068 124.51386789 -9.42717673 124.51767356 -8.67631873 124.52159455 C-6.2271593 124.53192491 -3.77823101 124.52800152 -1.32905579 124.52415466 C0.44179902 124.52860629 2.21265184 124.53392009 3.98350173 124.54002339 C8.8555909 124.55422296 13.72761633 124.55586631 18.59972322 124.55542648 C23.85210454 124.55707297 29.10445947 124.57013636 34.35682678 124.58161926 C45.84443871 124.60448168 57.33203217 124.61239124 68.81966376 124.61744571 C75.99169996 124.62070134 83.16373078 124.62722301 90.33576393 124.6344471 C110.19055731 124.65401478 130.0453457 124.67041796 149.90014935 124.67332363 C151.17103096 124.6735112 152.44191257 124.67369877 153.75130575 124.67389202 C156.32773165 124.67425828 158.90415755 124.67462198 161.48058345 124.67498314 C162.7595373 124.67516595 164.03849115 124.67534876 165.35620117 124.67553711 C166.63671491 124.67571766 167.91722865 124.67589821 169.23654584 124.67608423 C189.98706882 124.67962612 210.73748803 124.70664877 231.48797502 124.744035 C252.78892092 124.78210606 274.08981532 124.80148102 295.39079601 124.80178314 C307.35184217 124.80236799 319.31276458 124.81087757 331.27377892 124.83978081 C341.45858923 124.86427859 351.64323064 124.87158836 361.82806244 124.85653328 C367.02426838 124.84935785 372.22014069 124.85024937 377.41630936 124.87294388 C382.17550292 124.89353066 386.93410628 124.89093615 391.69329343 124.87006903 C393.41269582 124.86657358 395.13214077 124.87148651 396.85148736 124.88577347 C406.92278064 124.9640509 415.93375304 124.76654799 423.70241851 117.47652239 C429.98910302 110.71682423 431.91192311 103.74541422 431.98950195 94.69067383 C432.00233719 93.38193802 432.01517242 92.07320221 432.02839661 90.72480774 C432.03656662 89.30221947 432.04400985 87.87962687 432.05078125 86.45703125 C432.05485678 85.73491644 432.0589323 85.01280163 432.06313133 84.26880455 C432.08394469 80.44474963 432.09826544 76.62073005 432.10766602 72.79663086 C432.11870663 68.87062967 432.15309231 64.94519893 432.19283772 61.01939869 C432.2191316 57.97968071 432.22736918 54.94009595 432.23094749 51.90027428 C432.23578239 50.45434413 432.24730674 49.00841867 432.26598549 47.56260109 C432.3890579 37.40303913 431.45633705 28.81034618 425.25 20.4375 C419.40621045 14.45085916 412.04679199 12.00127306 403.81386566 11.63311005 C401.12835742 11.61140205 398.4515763 11.61607734 395.76696777 11.64440918 C394.26642908 11.64167385 392.76589309 11.63672746 391.26536798 11.62977934 C387.16840667 11.61704419 383.07208617 11.63513036 378.97519302 11.65842414 C374.5471949 11.67804843 370.1192472 11.66856555 365.69122314 11.66249084 C358.02748812 11.65571015 350.36394383 11.66656066 342.70024109 11.6889801 C331.616684 11.72094093 320.53330445 11.72052774 309.44971353 11.71133965 C291.46124535 11.69683856 273.47283738 11.70089765 255.484375 11.72021484 C254.4087799 11.72136329 253.3331848 11.72251173 252.22499591 11.72369498 C244.58749669 11.73197123 236.9499983 11.7409119 229.3125 11.75 C220.57421923 11.76039293 211.83593825 11.77047602 203.09765625 11.77978516 C201.4825969 11.78151561 201.4825969 11.78151561 199.83491009 11.78328103 C181.90236414 11.80188841 163.96987025 11.80100872 146.03732157 11.78612375 C134.97570994 11.77789411 123.91438043 11.78744448 112.8528114 11.81971943 C105.28347126 11.84069986 97.71425621 11.84420713 90.14489454 11.83377111 C85.77376676 11.82838567 81.40304473 11.83140875 77.03197479 11.85611153 C73.03511926 11.87857378 69.03894912 11.87833104 65.04208022 11.85962588 C63.59215288 11.85696644 62.14218077 11.86287967 60.69232959 11.87797683 C58.72977902 11.89722327 56.76698389 11.88301686 54.80440521 11.86688995 C53.7118371 11.86846116 52.61926898 11.87003236 51.49359274 11.87165117 C48.8125 11.25 48.8125 11.25 46.93019342 8.84816313 C45.8125 6.25 45.8125 6.25 45.9375 4.0625 C46.8125 2.25 46.8125 2.25 49.8125 0.25 C52.46153259 -0.00069833 52.46153259 -0.00069833 55.72631836 -0.00168228 C56.96908004 -0.00689778 58.21184172 -0.01211327 59.49226284 -0.01748681 C60.87895706 -0.01316225 62.26565069 -0.00864891 63.65234375 -0.00396729 C65.1196486 -0.00627035 66.5869523 -0.00944584 68.05425358 -0.01342177 C72.0966318 -0.02180039 76.13891604 -0.01763057 80.18129468 -0.01144934 C84.53732785 -0.00693802 88.89334447 -0.01390224 93.24937439 -0.01940918 C101.78918096 -0.02832077 110.32895244 -0.02637281 118.86876041 -0.0205839 C125.81177135 -0.01607198 132.75477244 -0.01545248 139.69778442 -0.01763153 C140.68500596 -0.017938 141.67222751 -0.01824446 142.68936485 -0.01856022 C144.69482621 -0.01919966 146.70028756 -0.01984809 148.70574892 -0.0205054 C167.53145436 -0.02621447 186.35714036 -0.019643 205.18284261 -0.00890467 C221.32877333 0.00002028 237.47467528 -0.00151136 253.62060547 -0.01074219 C272.36533266 -0.02145375 291.11004275 -0.02565341 309.85477257 -0.01951766 C311.85541153 -0.01888057 313.85605049 -0.01825182 315.85668945 -0.01763153 C317.33322131 -0.0171687 317.33322131 -0.0171687 318.83958209 -0.01669653 C325.7684658 -0.01497142 332.69733867 -0.01788096 339.6262207 -0.02259064 C348.07920756 -0.0282098 356.53215729 -0.02666173 364.98513991 -0.01602915 C369.29631153 -0.01078466 373.60742133 -0.00869464 377.91859245 -0.01532745 C381.87036123 -0.02131509 385.82201127 -0.01796559 389.77376938 -0.00737235 C391.19849468 -0.00515007 392.62323015 -0.00624807 394.04794884 -0.01112393 C408.03910057 -0.0553081 420.55025275 0.7975289 431.36328125 10.55078125 C439.23885208 18.8388206 442.9014998 26.94664441 442.98950195 38.32250977 C442.99607315 39.02718887 443.00264435 39.73186798 443.00941467 40.457901 C443.0290917 42.78573732 443.0408011 45.11350912 443.05078125 47.44140625 C443.05485678 48.24041792 443.0589323 49.03942959 443.06313133 49.86265373 C443.0839737 54.09634006 443.09828026 58.32999421 443.10766602 62.5637207 C443.11869389 66.91224595 443.15305663 71.26025434 443.19283772 75.60859776 C443.21913493 78.97261936 443.22736965 82.33652059 443.23094749 85.70063591 C443.23578397 87.3020366 443.24731292 88.903433 443.26598549 90.50473213 C443.40757569 103.45776944 441.88557625 114.35012064 432.8125 124.25 C425.42720247 131.73956055 416.63073205 135.78505689 406.10234624 136.50299966 C404.81834406 136.50440851 403.53434188 136.50581736 402.21143055 136.50726891 C401.48684736 136.51077498 400.76226417 136.51428105 400.01572391 136.51789337 C397.59884978 136.52716333 395.18221895 136.52229553 392.76533508 136.51742554 C391.0105287 136.52116402 389.25572399 136.52576634 387.50092191 136.53115618 C382.68700508 136.54337714 377.87315781 136.54312677 373.05922902 136.54076743 C367.86410588 136.54035903 362.66900497 136.55140062 357.47389221 136.56088257 C347.29846011 136.57748879 337.12305118 136.58299195 326.94760666 136.58410732 C318.67511707 136.58505801 310.40263511 136.58916936 302.13014793 136.59550858 C278.66947576 136.61312026 255.20882188 136.62234761 231.74814305 136.62084763 C230.48362157 136.62076772 229.21910008 136.6206878 227.91625977 136.62060547 C226.65019192 136.62052371 225.38412408 136.62044195 224.07969054 136.62035771 C203.56419496 136.61954492 183.04877281 136.63868107 162.53329847 136.6668822 C141.46163596 136.69561901 120.39000925 136.70942204 99.31832665 136.70769465 C87.49083015 136.70703101 75.66341062 136.71251208 63.83593178 136.73405075 C53.7651141 136.75227303 43.6944083 136.75660125 33.62358127 136.7430319 C28.48778605 136.73650749 23.3522054 136.73636613 18.21643066 136.7537384 C13.50907938 136.76949735 8.80211229 136.76657664 4.09477022 136.74917014 C2.39761393 136.74610646 0.70042876 136.74970867 -0.99669345 136.76089029 C-15.7471622 136.85158906 -28.1877257 135.0090396 -39.0859375 124.40234375 C-46.29074068 116.75674038 -49.28410408 108.57036492 -49.36450195 98.17749023 C-49.37107315 97.47281113 -49.37764435 96.76813202 -49.38441467 96.042099 C-49.4040917 93.71426268 -49.4158011 91.38649088 -49.42578125 89.05859375 C-49.42985678 88.25958208 -49.4339323 87.46057041 -49.43813133 86.63734627 C-49.4589737 82.40365994 -49.47328026 78.17000579 -49.48266602 73.9362793 C-49.49369389 69.58775405 -49.52805663 65.23974566 -49.56783772 60.89140224 C-49.59413493 57.52738064 -49.60236965 54.16347941 -49.60594749 50.79936409 C-49.61078397 49.1979634 -49.62231292 47.596567 -49.64098549 45.99526787 C-49.79009009 32.35479365 -47.9432261 21.46458439 -38.1875 11.25 C-27.11555466 0.93766837 -14.42032776 0.06391281 0 0 Z " fill="#040300" transform="translate(59.1875,365.75)"/>
<path d="M0 0 C1.54675415 -0.01902626 1.54675415 -0.01902626 3.12475586 -0.03843689 C4.79356812 -0.03403343 4.79356812 -0.03403343 6.49609375 -0.02954102 C7.63892822 -0.03478287 8.7817627 -0.04002472 9.95922852 -0.04542542 C12.37678209 -0.05185223 14.79436691 -0.05050016 17.21191406 -0.04199219 C20.91918353 -0.03348035 24.62491404 -0.06223995 28.33203125 -0.09399414 C30.67838495 -0.09560609 33.0247414 -0.09502875 35.37109375 -0.09204102 C36.48363525 -0.10327499 37.59617676 -0.11450897 38.74243164 -0.12608337 C39.77360107 -0.11670242 40.80477051 -0.10732147 41.8671875 -0.09765625 C43.22928345 -0.097407 43.22928345 -0.097407 44.61889648 -0.09715271 C46.93359375 0.40405273 46.93359375 0.40405273 48.72895813 2.02836609 C50.30846878 5.14335148 50.29415375 7.42623984 50.27416992 10.91674805 C50.27482704 11.88322769 50.27482704 11.88322769 50.27549744 12.86923218 C50.27341399 14.99052655 50.25010556 17.11102212 50.2265625 19.23217773 C50.22096493 20.70619271 50.21669559 22.18021328 50.21369934 23.65423584 C50.20226316 27.52758279 50.17280689 31.40059049 50.1395874 35.27380371 C50.10885986 39.2286317 50.09518829 43.18351469 50.08007812 47.13842773 C50.04793571 54.89379047 49.9967546 62.64887401 49.93359375 70.40405273 C50.60938477 70.3935791 51.28517578 70.38310547 51.98144531 70.37231445 C55.04879017 70.33069298 58.11607553 70.30470701 61.18359375 70.27905273 C62.24707031 70.26229492 63.31054688 70.24553711 64.40625 70.22827148 C65.94345703 70.21860352 65.94345703 70.21860352 67.51171875 70.20874023 C68.4543457 70.1982666 69.39697266 70.18779297 70.36816406 70.17700195 C73.08173719 70.41716402 74.67552608 70.89569418 76.93359375 72.40405273 C77.98046875 75.05249023 77.98046875 75.05249023 77.93359375 78.40405273 C76.4697736 81.19023142 75.01475657 83.50208871 73.18359375 86.02905273 C72.06477072 87.63819594 70.94630531 89.24758784 69.828125 90.85717773 C69.20631348 91.73954102 68.58450195 92.6219043 67.94384766 93.53100586 C64.59460038 98.31773673 61.33850391 103.16768752 58.06851196 108.00869751 C56.04725647 110.99707716 54.01732029 113.97954885 51.98828125 116.96264648 C48.52688981 122.05343714 45.07518702 127.15067885 41.62890625 132.25170898 C40.33554618 134.16427804 39.04198118 136.07670828 37.74832153 137.98907471 C36.92131788 139.21249917 36.09503005 140.43640785 35.26950073 141.66082764 C34.11908486 143.36690575 32.9660637 145.07119579 31.8125 146.77514648 C31.15838135 147.74379639 30.5042627 148.71244629 29.83032227 149.71044922 C24.52062699 157.25091363 24.52062699 157.25091363 21.05859375 158.15405273 C13.59304164 156.36232023 8.7301229 145.808858 4.74609375 139.71655273 C3.33050827 137.5726093 1.91379352 135.42941117 0.49609375 133.28686523 C0.12841385 132.73038803 -0.23926605 132.17391083 -0.61808777 131.60057068 C-4.5454805 125.66334142 -8.53678185 119.76997862 -12.5378418 113.88223267 C-13.74907196 112.09867132 -14.95777086 110.31341679 -16.16601562 108.52783203 C-19.78237929 103.189878 -23.4236755 97.87401074 -27.16015625 92.61889648 C-27.77286377 91.74982666 -28.38557129 90.88075684 -29.0168457 89.98535156 C-30.13624841 88.40245478 -31.26681469 86.82736497 -32.41088867 85.26220703 C-34.63443641 82.10609728 -35.96709386 79.91566202 -36.7109375 76.08374023 C-36.06640625 73.40405273 -36.06640625 73.40405273 -33.87109375 71.75488281 C-30.79470397 70.27319195 -28.93522492 70.054296 -25.546875 70.11108398 C-24.52529297 70.12075195 -23.50371094 70.13041992 -22.45117188 70.14038086 C-21.39607422 70.16551758 -20.34097656 70.1906543 -19.25390625 70.21655273 C-17.64225586 70.23685547 -17.64225586 70.23685547 -15.99804688 70.25756836 C-13.3536517 70.29282696 -10.71028877 70.34210907 -8.06640625 70.40405273 C-8.07306808 69.57133347 -8.07972992 68.7386142 -8.08659363 67.88066101 C-8.14667318 60.03792185 -8.19236453 52.19525983 -8.22184277 44.35234356 C-8.23750727 40.32008241 -8.25875955 36.2880112 -8.29272461 32.25585938 C-8.32529054 28.36551353 -8.34325336 24.47535054 -8.35103798 20.58487892 C-8.35658651 19.0996799 -8.36742136 17.61449104 -8.38359642 16.12936974 C-8.40533476 14.05103201 -8.40837481 11.97345242 -8.40698242 9.89501953 C-8.41364426 8.71143356 -8.42030609 7.5278476 -8.4271698 6.30839539 C-8.06640625 3.40405273 -8.06640625 3.40405273 -6.86177063 1.52362061 C-4.46581582 0.02953168 -2.81910367 0.01677368 0 0 Z " fill="#70BEE4" transform="translate(133.06640625,171.595947265625)"/>
<path d="M0 0 C6.22905949 1.15352954 9.14063325 7.85396382 12.60205078 12.8203125 C15.13646094 16.50807239 17.63058219 20.22263226 20.125 23.9375 C21.04473172 25.30191439 21.96482231 26.66608694 22.88525391 28.0300293 C24.77731188 30.83427016 26.66798435 33.63943694 28.55761719 36.4453125 C32.53831443 42.35376878 36.53527969 48.25117554 40.53527832 54.14657593 C41.71415608 55.88465355 42.89183481 57.62353839 44.06933594 59.36254883 C44.79668945 60.43529053 45.52404297 61.50803223 46.2734375 62.61328125 C46.96018555 63.63115723 47.64693359 64.6490332 48.35449219 65.69775391 C49.68920319 67.63143986 51.05948155 69.54110551 52.46582031 71.42333984 C53.10874023 72.28781738 53.75166016 73.15229492 54.4140625 74.04296875 C54.98592285 74.78699951 55.5577832 75.53103027 56.14697266 76.29760742 C57.74496054 79.32615981 57.8811969 81.24950179 57.375 84.625 C55.1702462 86.81442599 53.81755895 87.56827731 50.71777344 87.96557617 C49.73325195 87.94986572 48.74873047 87.93415527 47.734375 87.91796875 C46.66445313 87.90830078 45.59453125 87.89863281 44.4921875 87.88867188 C42.82542969 87.8509668 42.82542969 87.8509668 41.125 87.8125 C39.43503906 87.79219727 39.43503906 87.79219727 37.7109375 87.77148438 C34.93180736 87.73615645 32.15364637 87.6868252 29.375 87.625 C29.37944122 88.45771927 29.38388245 89.29043854 29.38845825 90.14839172 C29.42851138 97.9911494 29.45897239 105.83387278 29.47862434 113.67670918 C29.4890672 117.70891491 29.50323551 121.74103622 29.52587891 125.77319336 C29.54758947 129.66352863 29.55956484 133.55378264 29.56475449 137.44417381 C29.56845346 138.92935656 29.57567654 140.4145348 29.58646011 141.899683 C29.60095148 143.97789797 29.60297896 146.05577594 29.60205078 148.1340332 C29.606492 149.31761917 29.61093323 150.50120514 29.61550903 151.72065735 C29.375 154.625 29.375 154.625 27.375 157.625 C25.14259338 158.01268005 25.14259338 158.01268005 22.33032227 158.02905273 C21.27905655 158.04173691 20.22779083 158.05442108 19.14466858 158.06748962 C18.00509201 158.06455399 16.86551544 158.06161835 15.69140625 158.05859375 C14.52496078 158.0638356 13.35851532 158.06907745 12.15672302 158.07447815 C9.68611447 158.08091119 7.21547535 158.07954488 4.74487305 158.07104492 C0.9563153 158.06254223 -2.83073229 158.09126947 -6.61914062 158.12304688 C-9.01562455 158.12465902 -11.41211115 158.1240811 -13.80859375 158.12109375 C-14.94614609 158.13232773 -16.08369843 158.14356171 -17.25572205 158.15513611 C-18.31013992 158.14575516 -19.3645578 158.13637421 -20.45092773 158.12670898 C-21.84419533 158.12645973 -21.84419533 158.12645973 -23.26560974 158.12620544 C-25.625 157.625 -25.625 157.625 -27.42709351 156.00068665 C-28.99758053 152.88609876 -28.98553578 150.59858338 -28.96557617 147.11230469 C-28.96623329 146.14582504 -28.96623329 146.14582504 -28.96690369 145.15982056 C-28.96482024 143.03852619 -28.94151181 140.91803062 -28.91796875 138.796875 C-28.91237118 137.32286002 -28.90810184 135.84883945 -28.90510559 134.37481689 C-28.89366941 130.50146994 -28.86421314 126.62846224 -28.83099365 122.75524902 C-28.80026611 118.80042103 -28.78659454 114.84553804 -28.77148438 110.890625 C-28.73934196 103.13526226 -28.68816085 95.38017873 -28.625 87.625 C-29.68412598 87.6564209 -29.68412598 87.6564209 -30.76464844 87.68847656 C-33.96795376 87.77169298 -37.17103163 87.82367785 -40.375 87.875 C-41.48617188 87.90851563 -42.59734375 87.94203125 -43.7421875 87.9765625 C-44.81210937 87.98945313 -45.88203125 88.00234375 -46.984375 88.015625 C-47.96889648 88.03657227 -48.95341797 88.05751953 -49.96777344 88.07910156 C-53.37231101 87.49728974 -54.550315 86.33594631 -56.625 83.625 C-56.6598533 78.5224768 -54.31257815 75.26955754 -51.3125 71.375 C-50.38541313 70.12432464 -49.461051 68.87162607 -48.5390625 67.6171875 C-47.81444824 66.63443848 -47.81444824 66.63443848 -47.07519531 65.63183594 C-44.6814717 62.31930932 -42.43688248 58.91148549 -40.1875 55.5 C-29.62129736 39.53791469 -18.82846692 23.72262046 -8 7.9375 C-7.55712646 7.29087402 -7.11425293 6.64424805 -6.65795898 5.97802734 C-3.04338094 0.72461451 -3.04338094 0.72461451 0 0 Z " fill="#EDBD1F" transform="translate(357.625,171.375)"/>
<path d="M0 0 C0.99 0.103125 1.98 0.20625 3 0.3125 C5.32215743 3.79573614 5.26169783 5.19342737 5.29052734 9.30932617 C5.30328705 10.54458542 5.31604675 11.77984467 5.32919312 13.05253601 C5.33225179 14.403512 5.33447901 15.75449009 5.3359375 17.10546875 C5.34236733 18.49449297 5.34909583 19.88351584 5.35610962 21.27253723 C5.36808862 24.18701309 5.37179012 27.1013704 5.37060547 30.01586914 C5.37040293 33.73367857 5.39763338 37.45071795 5.43214989 41.16834545 C5.45450016 44.03987549 5.45844045 46.91122312 5.45738602 49.78283119 C5.45973253 51.15225169 5.46850219 52.52167795 5.48405075 53.89101219 C5.64355562 69.39804503 5.64355562 69.39804503 1 74.3125 C-5.77270265 79.65622886 -13.33121902 78.86871278 -21.55157471 78.81370544 C-23.15590557 78.8175997 -24.76023298 78.82324114 -26.36455226 78.83047634 C-30.76687866 78.84523052 -35.16884735 78.83505011 -39.57116222 78.82073963 C-44.32098843 78.80963388 -49.07076429 78.82157096 -53.82058716 78.83058167 C-63.12188057 78.84451754 -72.42303826 78.83695598 -81.72432521 78.82190608 C-92.55052549 78.80505457 -103.37669188 78.80825503 -114.20290121 78.81200016 C-133.51355015 78.81787909 -152.82413387 78.80370435 -172.13476562 78.77905273 C-190.88544151 78.75511856 -209.63603033 78.74805361 -228.38671875 78.75854492 C-248.79703951 78.76994433 -269.20731999 78.77189732 -289.61764026 78.75744683 C-291.79219993 78.75592095 -293.9667596 78.75440059 -296.14131927 78.75288582 C-297.21130701 78.752128 -298.28129474 78.75137019 -299.38370635 78.75058941 C-306.93605983 78.74584007 -314.48839538 78.74770253 -322.0407486 78.75195122 C-331.2371886 78.75686866 -340.43354616 78.75093443 -349.62996724 78.73105692 C-354.32499498 78.72116005 -359.01989696 78.71610559 -363.71493149 78.72394943 C-368.00788634 78.73097505 -372.30058671 78.72427534 -376.59350786 78.7063458 C-378.15121032 78.70228105 -379.70893576 78.70333484 -381.26662984 78.70986467 C-383.37501903 78.7179505 -385.48253723 78.70778301 -387.5908699 78.69281673 C-388.76458814 78.6917876 -389.93830637 78.69075848 -391.14759183 78.68969816 C-394 78.3125 -394 78.3125 -395.91228938 76.94888645 C-397 75.3125 -397 75.3125 -396.8125 72.75 C-396 70.3125 -396 70.3125 -394 68.3125 C-391.27886105 68.05999231 -391.27886105 68.05999231 -387.73118591 68.0563736 C-387.07776518 68.05297673 -386.42434444 68.04957986 -385.75112307 68.04608005 C-383.54029737 68.03704702 -381.32973153 68.04236185 -379.11889648 68.04748535 C-377.52642067 68.04391785 -375.93394662 68.03946864 -374.34147549 68.03420877 C-369.94882732 68.02223687 -365.55625342 68.02273297 -361.16359282 68.02514386 C-356.4327898 68.02556191 -351.70201285 68.01447904 -346.97122192 68.00468445 C-338.76882804 67.98920286 -330.56645141 67.98081415 -322.36404419 67.97697449 C-310.50244206 67.97123777 -298.64088648 67.95266875 -286.77930486 67.93053395 C-267.53354156 67.89478448 -248.28777564 67.86648326 -229.04199219 67.84423828 C-227.88927051 67.84290329 -226.73654883 67.8415683 -225.54889619 67.84019285 C-216.1949646 67.82941538 -206.84103262 67.81899666 -197.4871006 67.8085928 C-189.31073614 67.79948347 -181.13437186 67.79023094 -172.95800781 67.78076172 C-171.80668377 67.77943098 -170.65535973 67.77810023 -169.46914709 67.77672917 C-150.2972703 67.75432765 -131.12541339 67.72414572 -111.95355701 67.68836927 C-100.11646256 67.66666099 -88.27939905 67.65207164 -76.44228578 67.64653051 C-68.33698757 67.64229484 -60.23171884 67.63108768 -52.12643695 67.61430657 C-47.4437441 67.60486795 -42.76110641 67.59879977 -38.07840347 67.60136986 C-33.79768706 67.60366906 -29.51708684 67.59692998 -25.23639405 67.58279103 C-23.68192367 67.57930867 -22.12744133 67.57926122 -20.57297122 67.58286363 C-18.4714435 67.5872609 -16.37030949 67.57955123 -14.26881409 67.5686264 C-13.09808129 67.56743223 -11.9273485 67.56623805 -10.72113895 67.56500769 C-7.85267912 67.59101027 -7.85267912 67.59101027 -6 65.3125 C-5.6814905 62.57528424 -5.6814905 62.57528424 -5.71289062 59.33398438 C-5.69947632 58.07928345 -5.68606201 56.82458252 -5.67224121 55.53186035 C-5.66967819 54.85963943 -5.66711517 54.18741852 -5.66447449 53.49482727 C-5.65620027 51.39362243 -5.63571086 49.29285537 -5.61193848 47.19177246 C-5.56366859 42.73207969 -5.53075259 38.27234349 -5.5 33.8125 C-5.46437108 28.64547545 -5.42251867 23.47866495 -5.36405945 18.31184387 C-5.34394565 16.23891406 -5.33566267 14.16614686 -5.32775879 12.09313965 C-5.31434448 10.83843872 -5.30093018 9.58373779 -5.28710938 8.29101562 C-5.27981812 7.18230103 -5.27252686 6.07358643 -5.26501465 4.93127441 C-4.87042881 1.03212654 -3.84103902 0.40010823 0 0 Z " fill="#C3E4FE" transform="translate(474,43.6875)"/>
<path d="M0 0 C3.5625 0.25 3.5625 0.25 7 1 C8.35371675 3.7074335 8.14964055 5.8519937 8.17700195 8.88330078 C8.18983719 10.11863556 8.20267242 11.35397034 8.21589661 12.6267395 C8.224067 13.98292642 8.23151015 15.33911788 8.23828125 16.6953125 C8.24235678 17.37854458 8.2464323 18.06177666 8.25063133 18.76571274 C8.27150099 22.38644865 8.28579519 26.00714663 8.29516602 29.62792969 C8.30619431 33.3535694 8.34054894 37.07860586 8.38033772 40.80403328 C8.40659863 43.67983035 8.41486647 46.55548626 8.41844749 49.43139267 C8.42329409 50.80361857 8.43485279 52.17583898 8.45348549 53.54794693 C8.55417579 61.45854858 8.39037498 67.28518889 4 74 C-0.1220573 77.87223565 -3.91143706 78.1255893 -9.40747929 78.13142776 C-10.06374224 78.1334804 -10.7200052 78.13553303 -11.39615491 78.13764787 C-13.61056252 78.14333373 -15.82490825 78.14185868 -18.0393219 78.14044189 C-19.63678415 78.1430246 -21.23424576 78.1460375 -22.83170646 78.1494453 C-27.23347949 78.15752926 -31.63523622 78.15930564 -36.0370158 78.16004276 C-40.77938137 78.16189082 -45.52173845 78.16943675 -50.26409912 78.17617798 C-60.63769071 78.18977029 -71.01127843 78.19578701 -81.38487744 78.20018864 C-87.85698291 78.20294874 -94.32908688 78.20718558 -100.80119133 78.21169281 C-118.70691745 78.22388512 -136.61264236 78.23418551 -154.51837254 78.2375679 C-156.23790814 78.23789725 -156.23790814 78.23789725 -157.99218183 78.23823325 C-159.14133149 78.23845153 -160.29048114 78.23866981 -161.47445351 78.2388947 C-163.80320013 78.23933817 -166.13194674 78.23978474 -168.46069336 78.24023438 C-169.61584015 78.2404558 -170.77098694 78.24067723 -171.96113818 78.24090537 C-190.69637467 78.24485697 -209.43157235 78.26232219 -228.16679383 78.2855939 C-247.3838909 78.30927238 -266.60096846 78.3217681 -285.81808037 78.32293582 C-296.61521292 78.32385439 -307.41229487 78.32965267 -318.20941353 78.34775543 C-327.39937632 78.36310901 -336.58927287 78.36830497 -345.77924604 78.36001733 C-350.47210708 78.35609432 -355.16483453 78.35712033 -359.85767937 78.37107468 C-364.14764009 78.38371504 -368.43736549 78.38270403 -372.72732543 78.37048396 C-374.28513674 78.36850973 -375.84296416 78.37168395 -377.40075273 78.38032833 C-379.50691465 78.39128236 -381.61222541 78.38403414 -383.71836185 78.3719368 C-384.89159034 78.37253389 -386.06481882 78.37313097 -387.27359968 78.37374616 C-388.17331179 78.25040992 -389.07302389 78.12707369 -390 78 C-392 75 -392 75 -391.75 72.4375 C-391 70 -391 70 -389 68 C-386.28297174 67.74519098 -386.28297174 67.74519098 -382.74121666 67.73828697 C-381.76271932 67.73229288 -381.76271932 67.73229288 -380.76445436 67.72617769 C-378.55736191 67.71512426 -376.35051687 67.71841571 -374.1434021 67.7215271 C-372.55362494 67.71652871 -370.96385033 67.71065427 -369.37407935 67.70397437 C-364.98897924 67.68810498 -360.60394307 67.68473989 -356.21881771 67.68332577 C-351.49622696 67.67964376 -346.7736718 67.66449438 -342.05110168 67.65071106 C-333.86344141 67.62839653 -325.67579373 67.61340851 -317.48810959 67.60334396 C-305.64997882 67.58878166 -293.81189189 67.56325181 -281.97378679 67.53501268 C-262.76899444 67.48950004 -243.5641958 67.45290376 -224.359375 67.421875 C-205.69953302 67.39170774 -187.03970646 67.35736589 -168.37988281 67.31738281 C-166.65568104 67.31369049 -166.65568104 67.31369049 -164.8966469 67.30992357 C-159.13032059 67.29754933 -153.36399446 67.28509273 -147.59766841 67.27259517 C-99.73180045 67.16896044 -51.86591326 67.07977932 -4 67 C-2.63482938 64.26965875 -2.85263706 62.07783926 -2.82641602 59.02148438 C-2.80618126 57.13943298 -2.80618126 57.13943298 -2.78553772 55.21936035 C-2.7779478 54.21102898 -2.7779478 54.21102898 -2.77020454 53.18232727 C-2.75380847 51.08121933 -2.7305729 48.98029132 -2.70530701 46.87927246 C-2.63448216 40.90544575 -2.57432626 34.93154668 -2.52319336 28.95751953 C-2.49144829 25.30466865 -2.4501879 21.65202629 -2.40299797 17.99934387 C-2.38695459 16.60549153 -2.37464383 15.21159116 -2.36609077 13.81767273 C-2.35397268 11.87121106 -2.32879406 9.92484382 -2.30297852 7.97851562 C-2.29267105 6.86980103 -2.28236359 5.76108643 -2.27174377 4.61877441 C-2 2 -2 2 0 0 Z " fill="#F8E3A9" transform="translate(471,400)"/>
<path d="M0 0 C1.54675415 -0.01902626 1.54675415 -0.01902626 3.12475586 -0.03843689 C4.79356812 -0.03403343 4.79356812 -0.03403343 6.49609375 -0.02954102 C7.63892822 -0.03478287 8.7817627 -0.04002472 9.95922852 -0.04542542 C12.37678209 -0.05185223 14.79436691 -0.05050016 17.21191406 -0.04199219 C20.91918353 -0.03348035 24.62491404 -0.06223995 28.33203125 -0.09399414 C30.67838495 -0.09560609 33.0247414 -0.09502875 35.37109375 -0.09204102 C36.48363525 -0.10327499 37.59617676 -0.11450897 38.74243164 -0.12608337 C39.77360107 -0.11670242 40.80477051 -0.10732147 41.8671875 -0.09765625 C43.22928345 -0.097407 43.22928345 -0.097407 44.61889648 -0.09715271 C46.93359375 0.40405273 46.93359375 0.40405273 48.72895813 2.02836609 C50.30846878 5.14335148 50.29415375 7.42623984 50.27416992 10.91674805 C50.27482704 11.88322769 50.27482704 11.88322769 50.27549744 12.86923218 C50.27341399 14.99052655 50.25010556 17.11102212 50.2265625 19.23217773 C50.22096493 20.70619271 50.21669559 22.18021328 50.21369934 23.65423584 C50.20226316 27.52758279 50.17280689 31.40059049 50.1395874 35.27380371 C50.10885986 39.2286317 50.09518829 43.18351469 50.08007812 47.13842773 C50.04793571 54.89379047 49.9967546 62.64887401 49.93359375 70.40405273 C50.60938477 70.3935791 51.28517578 70.38310547 51.98144531 70.37231445 C55.04879017 70.33069298 58.11607553 70.30470701 61.18359375 70.27905273 C62.24707031 70.26229492 63.31054688 70.24553711 64.40625 70.22827148 C65.94345703 70.21860352 65.94345703 70.21860352 67.51171875 70.20874023 C68.4543457 70.1982666 69.39697266 70.18779297 70.36816406 70.17700195 C73.08173719 70.41716402 74.67552608 70.89569418 76.93359375 72.40405273 C77.98046875 75.05249023 77.98046875 75.05249023 77.93359375 78.40405273 C76.4697736 81.19023142 75.01475657 83.50208871 73.18359375 86.02905273 C72.06477072 87.63819594 70.94630531 89.24758784 69.828125 90.85717773 C69.20631348 91.73954102 68.58450195 92.6219043 67.94384766 93.53100586 C64.59460038 98.31773673 61.33850391 103.16768752 58.06851196 108.00869751 C56.04725647 110.99707716 54.01732029 113.97954885 51.98828125 116.96264648 C48.52688981 122.05343714 45.07518702 127.15067885 41.62890625 132.25170898 C40.33554618 134.16427804 39.04198118 136.07670828 37.74832153 137.98907471 C36.92131788 139.21249917 36.09503005 140.43640785 35.26950073 141.66082764 C34.11908486 143.36690575 32.9660637 145.07119579 31.8125 146.77514648 C31.15838135 147.74379639 30.5042627 148.71244629 29.83032227 149.71044922 C24.52062699 157.25091363 24.52062699 157.25091363 21.05859375 158.15405273 C13.59304164 156.36232023 8.7301229 145.808858 4.74609375 139.71655273 C3.33050827 137.5726093 1.91379352 135.42941117 0.49609375 133.28686523 C0.12841385 132.73038803 -0.23926605 132.17391083 -0.61808777 131.60057068 C-4.5454805 125.66334142 -8.53678185 119.76997862 -12.5378418 113.88223267 C-13.74907196 112.09867132 -14.95777086 110.31341679 -16.16601562 108.52783203 C-19.78237929 103.189878 -23.4236755 97.87401074 -27.16015625 92.61889648 C-27.77286377 91.74982666 -28.38557129 90.88075684 -29.0168457 89.98535156 C-30.13624841 88.40245478 -31.26681469 86.82736497 -32.41088867 85.26220703 C-34.63443641 82.10609728 -35.96709386 79.91566202 -36.7109375 76.08374023 C-36.06640625 73.40405273 -36.06640625 73.40405273 -33.87109375 71.75488281 C-30.79470397 70.27319195 -28.93522492 70.054296 -25.546875 70.11108398 C-24.52529297 70.12075195 -23.50371094 70.13041992 -22.45117188 70.14038086 C-21.39607422 70.16551758 -20.34097656 70.1906543 -19.25390625 70.21655273 C-17.64225586 70.23685547 -17.64225586 70.23685547 -15.99804688 70.25756836 C-13.3536517 70.29282696 -10.71028877 70.34210907 -8.06640625 70.40405273 C-8.07306808 69.57133347 -8.07972992 68.7386142 -8.08659363 67.88066101 C-8.14667318 60.03792185 -8.19236453 52.19525983 -8.22184277 44.35234356 C-8.23750727 40.32008241 -8.25875955 36.2880112 -8.29272461 32.25585938 C-8.32529054 28.36551353 -8.34325336 24.47535054 -8.35103798 20.58487892 C-8.35658651 19.0996799 -8.36742136 17.61449104 -8.38359642 16.12936974 C-8.40533476 14.05103201 -8.40837481 11.97345242 -8.40698242 9.89501953 C-8.41364426 8.71143356 -8.42030609 7.5278476 -8.4271698 6.30839539 C-8.06640625 3.40405273 -8.06640625 3.40405273 -6.86177063 1.52362061 C-4.46581582 0.02953168 -2.81910367 0.01677368 0 0 Z M1.93359375 10.40405273 C1.60359375 33.17405273 1.27359375 55.94405273 0.93359375 79.40405273 C-1.41579513 80.57874718 -3.0171383 80.60440162 -5.63671875 80.72045898 C-6.53261719 80.76235352 -7.42851563 80.80424805 -8.3515625 80.84741211 C-9.28871094 80.88672852 -10.22585937 80.92604492 -11.19140625 80.96655273 C-12.13628906 81.00973633 -13.08117187 81.05291992 -14.0546875 81.09741211 C-16.39177717 81.20364346 -18.72897455 81.3056845 -21.06640625 81.40405273 C-11.76162679 96.27859454 -1.8457361 110.75748359 7.99609375 125.27905273 C8.41709351 125.90077362 8.83809326 126.52249451 9.27185059 127.16305542 C10.4822166 128.94986637 11.69400028 130.73570689 12.90625 132.52124023 C13.61015869 133.55877441 14.31406738 134.59630859 15.03930664 135.6652832 C15.66442139 136.56907715 16.28953613 137.47287109 16.93359375 138.40405273 C17.47040771 139.18538574 18.00722168 139.96671875 18.56030273 140.77172852 C19.24008179 141.579729 19.24008179 141.579729 19.93359375 142.40405273 C20.59359375 142.40405273 21.25359375 142.40405273 21.93359375 142.40405273 C23.48271577 140.48537668 23.48271577 140.48537668 25.06640625 137.96264648 C25.69998047 136.99746094 26.33355469 136.03227539 26.98632812 135.0378418 C27.67017578 133.98306641 28.35402344 132.92829102 29.05859375 131.84155273 C30.50711 129.6357675 31.9571763 127.43110839 33.41015625 125.22827148 C33.78243347 124.66282623 34.15471069 124.09738098 34.53826904 123.51480103 C38.40418307 117.65873884 42.40868028 111.90174753 46.43359375 106.15405273 C52.72763277 97.15316454 52.72763277 97.15316454 58.93359375 88.09155273 C59.53171875 87.20854492 60.12984375 86.32553711 60.74609375 85.41577148 C62.10303872 83.50634264 62.10303872 83.50634264 61.93359375 81.40405273 C61.33820801 81.3842334 60.74282227 81.36441406 60.12939453 81.34399414 C57.43867222 81.24889148 54.74874227 81.13915431 52.05859375 81.02905273 C51.12144531 80.99811523 50.18429688 80.96717773 49.21875 80.93530273 C48.32285156 80.89663086 47.42695313 80.85795898 46.50390625 80.81811523 C45.26278076 80.77098389 45.26278076 80.77098389 43.99658203 80.72290039 C41.93359375 80.40405273 41.93359375 80.40405273 39.93359375 78.40405273 C39.65512085 75.58200073 39.65512085 75.58200073 39.61474609 71.93481445 C39.60470047 71.2712796 39.59465485 70.60774475 39.58430481 69.92410278 C39.55337387 67.72732422 39.53641063 65.53066804 39.51953125 63.33374023 C39.50082752 61.8120111 39.48125471 60.29029242 39.46084595 58.76858521 C39.40943451 54.76062168 39.36985726 50.7526245 39.33270264 46.74450684 C39.28569123 41.93696574 39.22405499 37.12959283 39.16485596 32.32218933 C39.07653385 25.01621134 39.00684867 17.71026737 38.93359375 10.40405273 C26.72359375 10.40405273 14.51359375 10.40405273 1.93359375 10.40405273 Z " fill="#000101" transform="translate(133.06640625,171.595947265625)"/>
<path d="M0 0 C6.22905949 1.15352954 9.14063325 7.85396382 12.60205078 12.8203125 C15.13646094 16.50807239 17.63058219 20.22263226 20.125 23.9375 C21.04473172 25.30191439 21.96482231 26.66608694 22.88525391 28.0300293 C24.77731188 30.83427016 26.66798435 33.63943694 28.55761719 36.4453125 C32.53831443 42.35376878 36.53527969 48.25117554 40.53527832 54.14657593 C41.71415608 55.88465355 42.89183481 57.62353839 44.06933594 59.36254883 C44.79668945 60.43529053 45.52404297 61.50803223 46.2734375 62.61328125 C46.96018555 63.63115723 47.64693359 64.6490332 48.35449219 65.69775391 C49.68920319 67.63143986 51.05948155 69.54110551 52.46582031 71.42333984 C53.10874023 72.28781738 53.75166016 73.15229492 54.4140625 74.04296875 C54.98592285 74.78699951 55.5577832 75.53103027 56.14697266 76.29760742 C57.74496054 79.32615981 57.8811969 81.24950179 57.375 84.625 C55.1702462 86.81442599 53.81755895 87.56827731 50.71777344 87.96557617 C49.73325195 87.94986572 48.74873047 87.93415527 47.734375 87.91796875 C46.66445313 87.90830078 45.59453125 87.89863281 44.4921875 87.88867188 C42.82542969 87.8509668 42.82542969 87.8509668 41.125 87.8125 C39.43503906 87.79219727 39.43503906 87.79219727 37.7109375 87.77148438 C34.93180736 87.73615645 32.15364637 87.6868252 29.375 87.625 C29.37944122 88.45771927 29.38388245 89.29043854 29.38845825 90.14839172 C29.42851138 97.9911494 29.45897239 105.83387278 29.47862434 113.67670918 C29.4890672 117.70891491 29.50323551 121.74103622 29.52587891 125.77319336 C29.54758947 129.66352863 29.55956484 133.55378264 29.56475449 137.44417381 C29.56845346 138.92935656 29.57567654 140.4145348 29.58646011 141.899683 C29.60095148 143.97789797 29.60297896 146.05577594 29.60205078 148.1340332 C29.606492 149.31761917 29.61093323 150.50120514 29.61550903 151.72065735 C29.375 154.625 29.375 154.625 27.375 157.625 C25.14259338 158.01268005 25.14259338 158.01268005 22.33032227 158.02905273 C21.27905655 158.04173691 20.22779083 158.05442108 19.14466858 158.06748962 C18.00509201 158.06455399 16.86551544 158.06161835 15.69140625 158.05859375 C14.52496078 158.0638356 13.35851532 158.06907745 12.15672302 158.07447815 C9.68611447 158.08091119 7.21547535 158.07954488 4.74487305 158.07104492 C0.9563153 158.06254223 -2.83073229 158.09126947 -6.61914062 158.12304688 C-9.01562455 158.12465902 -11.41211115 158.1240811 -13.80859375 158.12109375 C-14.94614609 158.13232773 -16.08369843 158.14356171 -17.25572205 158.15513611 C-18.31013992 158.14575516 -19.3645578 158.13637421 -20.45092773 158.12670898 C-21.84419533 158.12645973 -21.84419533 158.12645973 -23.26560974 158.12620544 C-25.625 157.625 -25.625 157.625 -27.42709351 156.00068665 C-28.99758053 152.88609876 -28.98553578 150.59858338 -28.96557617 147.11230469 C-28.96623329 146.14582504 -28.96623329 146.14582504 -28.96690369 145.15982056 C-28.96482024 143.03852619 -28.94151181 140.91803062 -28.91796875 138.796875 C-28.91237118 137.32286002 -28.90810184 135.84883945 -28.90510559 134.37481689 C-28.89366941 130.50146994 -28.86421314 126.62846224 -28.83099365 122.75524902 C-28.80026611 118.80042103 -28.78659454 114.84553804 -28.77148438 110.890625 C-28.73934196 103.13526226 -28.68816085 95.38017873 -28.625 87.625 C-29.68412598 87.6564209 -29.68412598 87.6564209 -30.76464844 87.68847656 C-33.96795376 87.77169298 -37.17103163 87.82367785 -40.375 87.875 C-41.48617188 87.90851563 -42.59734375 87.94203125 -43.7421875 87.9765625 C-44.81210937 87.98945313 -45.88203125 88.00234375 -46.984375 88.015625 C-47.96889648 88.03657227 -48.95341797 88.05751953 -49.96777344 88.07910156 C-53.37231101 87.49728974 -54.550315 86.33594631 -56.625 83.625 C-56.6598533 78.5224768 -54.31257815 75.26955754 -51.3125 71.375 C-50.38541313 70.12432464 -49.461051 68.87162607 -48.5390625 67.6171875 C-47.81444824 66.63443848 -47.81444824 66.63443848 -47.07519531 65.63183594 C-44.6814717 62.31930932 -42.43688248 58.91148549 -40.1875 55.5 C-29.62129736 39.53791469 -18.82846692 23.72262046 -8 7.9375 C-7.55712646 7.29087402 -7.11425293 6.64424805 -6.65795898 5.97802734 C-3.04338094 0.72461451 -3.04338094 0.72461451 0 0 Z M-0.625 15.625 C-2.0317701 17.50923876 -3.30098054 19.39456422 -4.5625 21.375 C-5.45672094 22.74714589 -6.35271442 24.11813746 -7.25 25.48828125 C-7.76949219 26.28314941 -8.28898437 27.07801758 -8.82421875 27.89697266 C-12.1064376 32.86924942 -15.4613629 37.79252969 -18.8104248 42.71990967 C-20.06128333 44.56070952 -21.31056586 46.40257066 -22.55957031 48.24462891 C-26.11531786 53.48538082 -29.67886295 58.71987439 -33.296875 63.91796875 C-33.81709229 64.6663501 -34.33730957 65.41473145 -34.87329102 66.18579102 C-35.80442442 67.5212843 -36.73955213 68.85400533 -37.67944336 70.18334961 C-39.92178624 73.12371887 -39.92178624 73.12371887 -40.625 76.625 C-40.02961426 76.64481934 -39.43422852 76.66463867 -38.82080078 76.68505859 C-36.13007847 76.78016126 -33.44014852 76.88989842 -30.75 77 C-29.81285156 77.0309375 -28.87570312 77.061875 -27.91015625 77.09375 C-27.01425781 77.13242188 -26.11835938 77.17109375 -25.1953125 77.2109375 C-24.36789551 77.2423584 -23.54047852 77.2737793 -22.68798828 77.30615234 C-20.625 77.625 -20.625 77.625 -18.625 79.625 C-18.3465271 82.447052 -18.3465271 82.447052 -18.30615234 86.09423828 C-18.29610672 86.75777313 -18.2860611 87.42130798 -18.27571106 88.10494995 C-18.24478012 90.30172852 -18.22781688 92.49838469 -18.2109375 94.6953125 C-18.19223377 96.21704163 -18.17266096 97.73876031 -18.1522522 99.26046753 C-18.10084076 103.26843105 -18.06126351 107.27642823 -18.02410889 111.2845459 C-17.97709748 116.09208699 -17.91546124 120.89945991 -17.85626221 125.7068634 C-17.7679401 133.01284139 -17.69825492 140.31878536 -17.625 147.625 C-5.415 147.625 6.795 147.625 19.375 147.625 C19.705 124.855 20.035 102.085 20.375 78.625 C22.72438888 77.45030556 24.32573205 77.42465111 26.9453125 77.30859375 C27.84121094 77.26669922 28.73710937 77.22480469 29.66015625 77.18164062 C30.59730469 77.14232422 31.53445313 77.10300781 32.5 77.0625 C33.44488281 77.01931641 34.38976562 76.97613281 35.36328125 76.93164062 C37.70037092 76.82540928 40.0375683 76.72336824 42.375 76.625 C37.65268563 69.14701862 32.84450769 61.73304632 27.9375 54.375 C26.9172876 52.844198 26.9172876 52.844198 25.87646484 51.2824707 C18.99283945 40.99174263 11.92885471 30.83002341 4.81689453 20.69604492 C3.6496118 19.01943479 2.50821469 17.32482204 1.375 15.625 C0.715 15.625 0.055 15.625 -0.625 15.625 Z " fill="#020100" transform="translate(357.625,171.375)"/>
<path d="M0 0 C6.26696777 3.79513586 10.68188444 8.16763193 12.9609375 15.1875 C14.15059152 23.86392405 14.08227508 31.73921103 8.8046875 39.1328125 C3.49623168 45.04859165 -2.15281872 48.666139 -10.1875 49.5234375 C-19.45644523 49.63565233 -24.92615249 48.22584663 -31.7890625 42 C-36.94674283 36.42923314 -39.2319774 30.83622051 -39.6015625 23.25 C-39.27563482 14.98615621 -36.19364509 8.8572772 -30.1640625 3.25 C-21.11126707 -3.8845451 -10.39139451 -5.40202458 0 0 Z " fill="#050502" transform="translate(114.0390625,410.8125)"/>
<path d="M0 0 C6.4572925 3.76319033 11.48223595 8.79818021 13.76953125 16.03125 C14.95196444 24.71138453 14.89393485 32.57866571 9.61328125 39.9765625 C4.42528044 45.75810578 -1.09057986 49.48588388 -8.91796875 50.31640625 C-17.48593544 50.74261888 -23.82569501 48.92905921 -30.30078125 43.19921875 C-35.83342891 37.33090836 -38.2899854 31.68660032 -38.73046875 23.65625 C-38.4806751 16.43221761 -35.96578536 10.98420482 -31.0703125 5.69921875 C-22.3767285 -2.35577143 -11.28049982 -5.12965886 0 0 Z " fill="#030506" transform="translate(113.23046875,53.96875)"/>
<path d="M0 0 C0.88576721 0.00404846 1.77153442 0.00809692 2.68414307 0.01226807 C3.61595901 0.00876343 4.54777496 0.00525879 5.50782776 0.00164795 C8.59930797 -0.00718077 11.69056077 -0.0013157 14.78204346 0.00543213 C16.92434229 0.00408569 19.06664082 0.00214534 21.2089386 -0.00036621 C25.70395815 -0.00331912 30.19889834 0.0009851 34.69390869 0.01031494 C40.46230109 0.02170267 46.23050725 0.01515531 51.99889278 0.00317001 C56.4246003 -0.00404994 60.85026353 -0.0017599 65.27597237 0.0034256 C67.40309229 0.00476207 69.5302162 0.00311445 71.65733147 -0.00153351 C74.6286169 -0.00660015 77.59959903 0.00111387 80.57086182 0.01226807 C81.4546048 0.0082196 82.33834778 0.00417114 83.24887085 0 C89.34940609 0.04252805 89.34940609 0.04252805 92.69219971 2.27105713 C93.06719971 5.27105713 93.06719971 5.27105713 92.69219971 8.27105713 C88.70342502 10.93024025 85.21806987 10.55872159 80.58673096 10.54571533 C79.65476898 10.55082626 78.72280701 10.55593719 77.76260376 10.561203 C74.67657075 10.57512334 71.59076041 10.57414056 68.50469971 10.57183838 C66.36382972 10.57572361 64.2229605 10.58005792 62.08209229 10.58482361 C57.5930532 10.59229082 53.10409276 10.59199064 48.61505127 10.58673096 C42.85447428 10.58093192 37.09421834 10.59787551 31.33369446 10.62107563 C26.91227325 10.63578587 22.49092987 10.63668843 18.06948853 10.6335659 C15.94515344 10.63408036 13.82081413 10.63934123 11.69650269 10.64937782 C8.73001036 10.66167406 5.76415018 10.65499183 2.79766846 10.64337158 C1.91549652 10.65101532 1.03332458 10.65865906 0.12442017 10.66653442 C-0.68312714 10.65952011 -1.49067444 10.6525058 -2.32269287 10.64527893 C-3.02396805 10.64544667 -3.72524323 10.64561441 -4.44776917 10.64578724 C-6.89676476 10.15240174 -7.8152003 9.24250263 -9.30780029 7.27105713 C-8.82616716 0.68873769 -6.18977828 0.04330111 0 0 Z " fill="#020200" transform="translate(166.30780029296875,428.72894287109375)"/>
<path d="M0 0 C0.88576721 0.00404846 1.77153442 0.00809692 2.68414307 0.01226807 C3.61595901 0.00876343 4.54777496 0.00525879 5.50782776 0.00164795 C8.59930797 -0.00718077 11.69056077 -0.0013157 14.78204346 0.00543213 C16.92434229 0.00408569 19.06664082 0.00214534 21.2089386 -0.00036621 C25.70395815 -0.00331912 30.19889834 0.0009851 34.69390869 0.01031494 C40.46230109 0.02170267 46.23050725 0.01515531 51.99889278 0.00317001 C56.4246003 -0.00404994 60.85026353 -0.0017599 65.27597237 0.0034256 C67.40309229 0.00476207 69.5302162 0.00311445 71.65733147 -0.00153351 C74.6286169 -0.00660015 77.59959903 0.00111387 80.57086182 0.01226807 C81.4546048 0.0082196 82.33834778 0.00417114 83.24887085 0 C89.34940609 0.04252805 89.34940609 0.04252805 92.69219971 2.27105713 C92.43658647 4.61417843 92.09949198 6.94949116 91.69219971 9.27105713 C88.29887603 10.96771897 84.43379958 10.42747812 80.70025635 10.43218994 C79.30253242 10.4396373 79.30253242 10.4396373 77.87657166 10.44723511 C74.785159 10.46187521 71.69379763 10.46866125 68.60235596 10.47418213 C66.46005755 10.47993136 64.31775917 10.48568912 62.17546082 10.49145508 C57.68046834 10.50196985 53.18549378 10.50780963 48.69049072 10.5112915 C42.9220596 10.51678205 37.15386383 10.54082013 31.38550663 10.56926346 C26.95980632 10.58785666 22.53416312 10.59309363 18.10842705 10.59462738 C15.98129423 10.59766115 13.85416259 10.60571389 11.72706795 10.61881256 C8.75570709 10.63580629 5.7849269 10.63400933 2.8135376 10.62750244 C1.92979462 10.63671722 1.04605164 10.64593201 0.13552856 10.65542603 C-0.6734639 10.64985687 -1.48245636 10.64428772 -2.31596375 10.6385498 C-3.01853774 10.64001637 -3.72111174 10.64148293 -4.44497585 10.64299393 C-6.8975322 10.15330959 -7.81419696 9.24500469 -9.30780029 7.27105713 C-8.82616716 0.68873769 -6.18977828 0.04330111 0 0 Z " fill="#010202" transform="translate(166.30780029296875,72.72894287109375)"/>
<path d="M0 0 C4.73446684 2.14072516 7.63847054 4.43272545 9.76953125 9.31640625 C10.51996047 14.49124108 10.57624368 19.49496873 8.20703125 24.25390625 C4.76428706 28.57940536 1.71906899 30.86299078 -3.6953125 31.6953125 C-9.37666033 31.96015729 -12.83914499 31.18495337 -17.23046875 27.31640625 C-21.62939979 22.32302507 -22.58723212 19.40625398 -22.51171875 12.85546875 C-21.9606319 7.88037912 -19.22349174 5.19121222 -15.60546875 2.00390625 C-10.73519836 -1.45654903 -5.72844797 -1.75565393 0 0 Z " fill="#F5E1AC" transform="translate(107.23046875,418.68359375)"/>
<path d="M0 0 C4.33612708 2.26682566 6.91961457 4.90283956 8.92578125 9.31640625 C9.679626 14.46120239 9.72220229 19.49703409 7.42578125 24.25390625 C3.82213736 28.66837001 0.25545027 30.76991235 -5.3828125 31.6953125 C-10.75397432 31.97609836 -13.90594121 30.90306367 -18.07421875 27.31640625 C-22.56157447 22.46521088 -23.45366853 18.94377868 -23.35546875 12.33984375 C-22.71762614 7.75092055 -19.78814249 4.94533907 -16.44921875 2.00390625 C-11.51145046 -1.50450806 -5.7975938 -1.91069475 0 0 Z " fill="#C2E2FB" transform="translate(108.07421875,62.68359375)"/>
<path d="M0 0 C1.18439415 0.00136711 1.18439415 0.00136711 2.39271545 0.00276184 C3.2040242 -0.00152328 4.01533295 -0.00580841 4.85122681 -0.01022339 C6.56857876 -0.01597091 8.28595506 -0.01646385 10.00331116 -0.01213074 C12.63288391 -0.0089734 15.26132901 -0.03241439 17.89076233 -0.05778503 C19.55807861 -0.06005823 21.22539793 -0.06076143 22.89271545 -0.05973816 C23.68028732 -0.06894791 24.46785919 -0.07815765 25.27929688 -0.08764648 C30.68057025 -0.04181615 30.68057025 -0.04181615 33.24061584 1.63093567 C34.2091217 3.30354309 34.2091217 3.30354309 34.0216217 6.42854309 C33.7534967 7.37729309 33.4853717 8.32604309 33.2091217 9.30354309 C30.01169032 10.90225878 26.53853055 10.4877599 23.02552795 10.50666809 C21.80856483 10.5152182 21.80856483 10.5152182 20.5670166 10.52394104 C18.84966843 10.53339295 17.13230211 10.53992578 15.41493225 10.54377747 C12.78546121 10.55349196 10.15676887 10.58451627 7.52748108 10.61604309 C5.86016802 10.62257227 4.19284936 10.62782307 2.52552795 10.63166809 C1.34417015 10.65018829 1.34417015 10.65018829 0.13894653 10.66908264 C-5.27806808 10.64693674 -5.27806808 10.64693674 -7.82237244 8.94319153 C-8.7908783 7.30354309 -8.7908783 7.30354309 -8.6033783 4.74104309 C-6.99665781 -0.07911836 -4.69876676 0.06127602 0 0 Z " fill="#030300" transform="translate(297.79087829589844,428.6964569091797)"/>
<path d="M0 0 C1.18439415 0.00136711 1.18439415 0.00136711 2.39271545 0.00276184 C3.2040242 -0.00152328 4.01533295 -0.00580841 4.85122681 -0.01022339 C6.56857876 -0.01597091 8.28595506 -0.01646385 10.00331116 -0.01213074 C12.63288391 -0.0089734 15.26132901 -0.03241439 17.89076233 -0.05778503 C19.55807861 -0.06005823 21.22539793 -0.06076143 22.89271545 -0.05973816 C23.68028732 -0.06894791 24.46785919 -0.07815765 25.27929688 -0.08764648 C30.69438258 -0.04169895 30.69438258 -0.04169895 33.24061584 1.66609192 C34.2091217 3.30354309 34.2091217 3.30354309 34.0216217 5.86604309 C33.2091217 8.30354309 33.2091217 8.30354309 31.2091217 10.30354309 C28.44751773 10.51565509 25.78874118 10.60751384 23.02552795 10.60432434 C22.21421921 10.60860947 21.40291046 10.61289459 20.5670166 10.61730957 C18.84966465 10.62305709 17.13228835 10.62355003 15.41493225 10.61921692 C12.7853595 10.61605959 10.1569144 10.63950057 7.52748108 10.66487122 C5.86016479 10.66714441 4.19284548 10.66784761 2.52552795 10.66682434 C1.73795609 10.67603409 0.95038422 10.68524384 0.13894653 10.69473267 C-5.27613917 10.64878513 -5.27613917 10.64878513 -7.82237244 8.94099426 C-8.7908783 7.30354309 -8.7908783 7.30354309 -8.6033783 4.74104309 C-6.99665781 -0.07911836 -4.69876676 0.06127602 0 0 Z " fill="#010303" transform="translate(297.79087829589844,72.69645690917969)"/>
<path d="M0 0 C2.4375 0.8125 2.4375 0.8125 4.4375 2.8125 C4.89982157 7.44105811 4.76147889 12.10104797 4.75 16.75 C4.76611328 18.05130859 4.78222656 19.35261719 4.79882812 20.69335938 C4.79947266 21.93794922 4.80011719 23.18253906 4.80078125 24.46484375 C4.80525269 26.18175415 4.80525269 26.18175415 4.80981445 27.93334961 C4.4375 30.8125 4.4375 30.8125 3.07495117 32.72094727 C1.4375 33.8125 1.4375 33.8125 -1.125 33.625 C-3.5625 32.8125 -3.5625 32.8125 -5.5625 30.8125 C-6.02482157 26.18394189 -5.88647889 21.52395203 -5.875 16.875 C-5.89111328 15.57369141 -5.90722656 14.27238281 -5.92382812 12.93164062 C-5.92447266 11.68705078 -5.92511719 10.44246094 -5.92578125 9.16015625 C-5.92876221 8.01554932 -5.93174316 6.87094238 -5.93481445 5.69165039 C-5.5625 2.8125 -5.5625 2.8125 -4.19995117 0.90405273 C-2.5625 -0.1875 -2.5625 -0.1875 0 0 Z " fill="#F8E3AB" transform="translate(363.5625,249.1875)"/>
<path d="M0 0 C3 0.25 3 0.25 5 2.25 C5.46232157 6.87855811 5.32397889 11.53854797 5.3125 16.1875 C5.32861328 17.48880859 5.34472656 18.79011719 5.36132812 20.13085938 C5.36197266 21.37544922 5.36261719 22.62003906 5.36328125 23.90234375 C5.36775269 25.61925415 5.36775269 25.61925415 5.37231445 27.37084961 C5 30.25 5 30.25 3.67260742 32.15844727 C2 33.25 2 33.25 -1.125 33.0625 C-2.07375 32.794375 -3.0225 32.52625 -4 32.25 C-6.28831108 27.67337784 -5.18502705 21.27502708 -5.1875 16.25 C-5.19974609 14.9403125 -5.21199219 13.630625 -5.22460938 12.28125 C-5.22654297 11.0334375 -5.22847656 9.785625 -5.23046875 8.5 C-5.23457764 7.35015625 -5.23868652 6.2003125 -5.24291992 5.015625 C-4.89206605 1.02118014 -3.96282202 0.33023517 0 0 Z " fill="#C3E4FE" transform="translate(149,218.75)"/>
<path d="M0 0 C1.38541992 0.00483398 1.38541992 0.00483398 2.79882812 0.00976562 C4.17844727 -0.0144043 4.17844727 -0.0144043 5.5859375 -0.0390625 C6.91141602 -0.0400293 6.91141602 -0.0400293 8.26367188 -0.04101562 C9.07312256 -0.04399658 9.88257324 -0.04697754 10.71655273 -0.05004883 C13.37279653 0.41105211 14.2561472 1.18912743 15.86132812 3.32226562 C16.17382812 5.88476562 16.17382812 5.88476562 15.86132812 8.32226562 C12.86761309 11.31598066 10.05638584 10.61482911 5.96289062 10.64453125 C4.939375 10.64130859 3.91585937 10.63808594 2.86132812 10.63476562 C1.32605469 10.65893555 1.32605469 10.65893555 -0.24023438 10.68359375 C-1.70589844 10.68456055 -1.70589844 10.68456055 -3.20117188 10.68554688 C-4.09964844 10.68852783 -4.998125 10.69150879 -5.92382812 10.69458008 C-7.02017578 10.51028442 -7.02017578 10.51028442 -8.13867188 10.32226562 C-10.13867188 7.32226562 -10.13867188 7.32226562 -9.88867188 4.75976562 C-8.21507656 -0.67941914 -4.919325 0.03952708 0 0 Z " fill="#F8E3A7" transform="translate(53.138671875,467.677734375)"/>
<path d="M0 0 C1.24233398 0.00483398 1.24233398 0.00483398 2.50976562 0.00976562 C3.33412109 -0.00634766 4.15847656 -0.02246094 5.0078125 -0.0390625 C6.19793945 -0.0400293 6.19793945 -0.0400293 7.41210938 -0.04101562 C8.137771 -0.04399658 8.86343262 -0.04697754 9.61108398 -0.05004883 C12.13484769 0.42906728 13.0223566 1.30729376 14.57226562 3.32226562 C14.88476562 5.88476562 14.88476562 5.88476562 14.57226562 8.32226562 C11.75232692 11.14220433 9.64322403 10.61189401 5.7890625 10.64453125 C4.91314453 10.64130859 4.03722656 10.63808594 3.13476562 10.63476562 C2.26271484 10.65087891 1.39066406 10.66699219 0.4921875 10.68359375 C-0.76561523 10.68456055 -0.76561523 10.68456055 -2.04882812 10.68554688 C-2.81638428 10.68852783 -3.58394043 10.69150879 -4.37475586 10.69458008 C-6.96312495 10.22517077 -7.87440842 9.41636757 -9.42773438 7.32226562 C-8.93235796 0.55212135 -5.97523643 0.05348055 0 0 Z " fill="#C2E3FE" transform="translate(52.427734375,111.677734375)"/>
<path d="M0 0 C3 -0.3125 3 -0.3125 6 0 C8.77809395 2.77809395 8.29955703 4.56755203 8.3125 8.4375 C8.32925781 9.59121094 8.34601563 10.74492187 8.36328125 11.93359375 C8 15 8 15 6.640625 16.921875 C5 18 5 18 2.4375 17.8125 C0 17 0 17 -2 15 C-2.265625 12.28515625 -2.265625 12.28515625 -2.25 9.0625 C-2.25515625 8.00160156 -2.2603125 6.94070313 -2.265625 5.84765625 C-2 3 -2 3 0 0 Z " fill="#F8E3A9" transform="translate(360,293)"/>
<path d="M0 0 C3 0.25 3 0.25 5 2.25 C5.265625 4.96484375 5.265625 4.96484375 5.25 8.1875 C5.25515625 9.24839844 5.2603125 10.30929688 5.265625 11.40234375 C5 14.25 5 14.25 3 17.25 C0 17.5625 0 17.5625 -3 17.25 C-5 15.25 -5 15.25 -5.265625 12.28125 C-5.26046875 11.1159375 -5.2553125 9.950625 -5.25 8.75 C-5.25515625 7.5846875 -5.2603125 6.419375 -5.265625 5.21875 C-4.89808855 1.11098968 -4.10821441 0.3423512 0 0 Z " fill="#C2E3FE" transform="translate(149,190.75)"/>
<path d="M0 0 C0.886875 -0.01675781 1.77375 -0.03351562 2.6875 -0.05078125 C3.8321875 0.12904297 3.8321875 0.12904297 5 0.3125 C7 3.3125 7 3.3125 6.75 5.875 C6 8.3125 6 8.3125 4 10.3125 C-3.05674282 10.87255895 -3.05674282 10.87255895 -6 9.125 C-7.34419875 6.68863976 -7.35131571 5.05276253 -7 2.3125 C-4.47982574 -0.20767426 -3.48500151 0.01519623 0 0 Z " fill="#060B0E" transform="translate(411,61.6875)"/>
<path d="M0 0 C0.89589844 -0.01417969 1.79179687 -0.02835938 2.71484375 -0.04296875 C5.0625 0.1875 5.0625 0.1875 7.0625 2.1875 C7.41381571 4.92776253 7.40669875 6.56363976 6.0625 9 C2.86218983 10.90018416 -0.3167549 10.72948263 -3.9375 10.1875 C-6 9.0625 -6 9.0625 -6.9375 7.1875 C-6.44875137 1.07814218 -5.98837521 0.04295822 0 0 Z " fill="#060B0D" transform="translate(362.9375,61.8125)"/>
<path d="M0 0 C2.56231382 0.07919879 3.85022116 0.19671154 6.125 1.4375 C7.54409947 4.27569894 6.84256606 6.32224676 6.0625 9.3125 C4.39565985 10.97934015 2.40606931 10.52322764 0.125 10.5625 C-0.77089844 10.58828125 -1.66679687 10.6140625 -2.58984375 10.640625 C-3.36457031 10.53234375 -4.13929688 10.4240625 -4.9375 10.3125 C-6.9375 7.3125 -6.9375 7.3125 -6.6875 4.75 C-5.39960287 0.56433431 -4.3916947 0.3485472 0 0 Z " fill="#0D0A01" transform="translate(386.9375,439.6875)"/>
<path d="M0 0 C2.0625 1.1875 2.0625 1.1875 3 3 C2.75546876 6.34192692 2.39456443 7.60543557 0 10 C-2.09375 10.265625 -2.09375 10.265625 -4.5 10.25 C-5.2940625 10.25515625 -6.088125 10.2603125 -6.90625 10.265625 C-9 10 -9 10 -11 8 C-10.75 4.4375 -10.75 4.4375 -10 1 C-6.81538141 -0.5923093 -3.46608511 -0.38905037 0 0 Z " fill="#05090B" transform="translate(439,84)"/>
<path d="M0 0 C2.4375 1.5 2.4375 1.5 4 3 C3.625 5.9375 3.625 5.9375 3 9 C0.64653604 10.17673198 -0.8806033 10.16623866 -3.5 10.1875 C-4.2940625 10.20167969 -5.088125 10.21585937 -5.90625 10.23046875 C-8 10 -8 10 -10 8 C-10.35571424 5.22542896 -10.36405327 3.62103204 -8.9375 1.1875 C-5.89729821 -0.67584949 -3.48171989 -0.36649683 0 0 Z " fill="#0C0A01" transform="translate(438,440)"/>
<path d="M0 0 C1.17369141 -0.02513672 1.17369141 -0.02513672 2.37109375 -0.05078125 C5.06263357 0.39540984 5.96316265 1.13158543 7.5625 3.3125 C7.31796876 6.65442692 6.95706443 7.91793557 4.5625 10.3125 C-2.49424282 10.87255895 -2.49424282 10.87255895 -5.4375 9.125 C-6.78169875 6.68863976 -6.78881571 5.05276253 -6.4375 2.3125 C-4.02263057 -0.10236943 -3.31042211 0.0163075 0 0 Z " fill="#0B0801" transform="translate(410.4375,417.6875)"/>
<path d="M0 0 C0.99 0.66 1.98 1.32 3 2 C3.42552252 4.76589638 3.35833436 6.35051898 2 8.8125 C-1.20031017 10.71268416 -4.3792549 10.54198263 -8 10 C-10.0625 8.875 -10.0625 8.875 -11 7 C-10.8125 3.875 -10.8125 3.875 -10 1 C-6.87293041 -0.5635348 -3.42017557 -0.39958487 0 0 Z " fill="#0B0801" transform="translate(367,418)"/>
<path d="M0 0 C2.56231382 0.07919879 3.85022116 0.19671154 6.125 1.4375 C7.557901 4.303302 6.91160305 6.30798152 6.0625 9.3125 C2.87788141 10.9048093 -0.47141489 10.70155037 -3.9375 10.3125 C-6 9.125 -6 9.125 -6.9375 7.3125 C-6.55432739 2.07580769 -5.39076263 0.4278383 0 0 Z " fill="#040708" transform="translate(386.9375,83.6875)"/>
<path d="M0 0 C2.4375 0.75 2.4375 0.75 4.4375 2.75 C3.98295455 8.20454545 3.98295455 8.20454545 1.4375 10.75 C-1 11.1875 -1 11.1875 -3.5625 10.75 C-5.60931909 8.29381709 -6.6225016 6.80002799 -6.4375 3.5625 C-4.96203378 0.50617712 -3.30767899 -0.32270039 0 0 Z " fill="#080601" transform="translate(91.5625,366.25)"/>
<path d="M0 0 C2.5625 0.3125 2.5625 0.3125 4.4375 1.4375 C5.5625 3.3125 5.5625 3.3125 5.4375 6.375 C4.5625 9.3125 4.5625 9.3125 1.5625 11.3125 C-1 11.1875 -1 11.1875 -3.4375 10.3125 C-5.12030715 8.09425422 -5.51324232 6.95630968 -5.1875 4.1875 C-4.03748857 1.31247142 -3.0859094 0.39562941 0 0 Z " fill="#040708" transform="translate(90.4375,9.6875)"/>
<path d="M0 0 C5.56818182 0.56818182 5.56818182 0.56818182 7 2 C7.25 4.9375 7.25 4.9375 7 8 C4 10 4 10 1.4375 9.75 C-1 9 -1 9 -3 7 C-2.67028521 3.70285207 -2.3773161 2.3773161 0 0 Z " fill="#0E0B01" transform="translate(272,429)"/>
<path d="M0 0 C5.56818182 0.56818182 5.56818182 0.56818182 7 2 C6.71269945 4.33944736 6.38063221 6.6739143 6 9 C0.56559513 10.32841008 0.56559513 10.32841008 -1.9375 8.875 C-3 7 -3 7 -2.8125 4.4375 C-2 2 -2 2 0 0 Z " fill="#060A0C" transform="translate(272,73)"/>
</svg>
